name ./resultDataOpenSim/trcMotMarkerGrf/sub10/grf-03-07.mot
datacolumns 19
datarows 27
range 0.51600000 0.62000000
endheader

                time	     ground_force_vx	     ground_force_vy	     ground_force_vz	     ground_force_px	     ground_force_py	     ground_force_pz	   l_ground_force_vx	   l_ground_force_vy	   l_ground_force_vz	   l_ground_force_px	   l_ground_force_py	   l_ground_force_pz	     ground_torque_x	     ground_torque_y	     ground_torque_z	   l_ground_torque_x	   l_ground_torque_y	   l_ground_torque_z	
          0.51600000	         25.41032986	        440.09504540	        -17.84375271	         -0.80024622	          0.00000000	          0.05701927	          0.00000000	          0.00000000	          0.00000000	          0.00000000	          0.00000000	          0.00000000	          0.00000000	          1.46022040	          0.00000000	          0.00000000	          0.00000000	          0.00000000	
          0.52000000	         25.71392154	        442.06462381	        -18.39504650	         -0.79841541	          0.00000000	          0.05715751	          0.00000000	          0.00000000	          0.00000000	          0.00000000	          0.00000000	          0.00000000	          0.00000000	          1.55015654	          0.00000000	          0.00000000	          0.00000000	          0.00000000	
          0.52400000	         26.20386743	        444.48033529	        -19.04709120	         -0.79656693	          0.00000000	          0.05728093	          0.00000000	          0.00000000	          0.00000000	          0.00000000	          0.00000000	          0.00000000	          0.00000000	          1.62185063	          0.00000000	          0.00000000	          0.00000000	          0.00000000	
          0.52800000	         26.98102777	        447.31287176	        -19.65960772	         -0.79473244	          0.00000000	          0.05738285	          0.00000000	          0.00000000	          0.00000000	          0.00000000	          0.00000000	          0.00000000	          0.00000000	          1.68172974	          0.00000000	          0.00000000	          0.00000000	          0.00000000	
          0.53200000	         28.08036832	        450.51991032	        -20.11522019	         -0.79292786	          0.00000000	          0.05746531	          0.00000000	          0.00000000	          0.00000000	          0.00000000	          0.00000000	          0.00000000	          0.00000000	          1.73625041	          0.00000000	          0.00000000	          0.00000000	          0.00000000	
          0.53600000	         29.47158109	        454.06012957	        -20.34633714	         -0.79116040	          0.00000000	          0.05753141	          0.00000000	          0.00000000	          0.00000000	          0.00000000	          0.00000000	          0.00000000	          0.00000000	          1.79049739	          0.00000000	          0.00000000	          0.00000000	          0.00000000	
          0.54000000	         31.07712312	        457.91046732	        -20.35132876	         -0.78943336	          0.00000000	          0.05758617	          0.00000000	          0.00000000	          0.00000000	          0.00000000	          0.00000000	          0.00000000	          0.00000000	          1.84714567	          0.00000000	          0.00000000	          0.00000000	          0.00000000	
          0.54400000	         32.80040391	        462.06179238	        -20.19363329	         -0.78774041	          0.00000000	          0.05763656	          0.00000000	          0.00000000	          0.00000000	          0.00000000	          0.00000000	          0.00000000	          0.00000000	          1.90580857	          0.00000000	          0.00000000	          0.00000000	          0.00000000	
          0.54800000	         34.55562842	        466.49426694	        -19.98209944	         -0.78606478	          0.00000000	          0.05768755	          0.00000000	          0.00000000	          0.00000000	          0.00000000	          0.00000000	          0.00000000	          0.00000000	          1.96290703	          0.00000000	          0.00000000	          0.00000000	          0.00000000	
          0.55200000	         36.29043561	        471.16280507	        -19.84149287	         -0.78438272	          0.00000000	          0.05774553	          0.00000000	          0.00000000	          0.00000000	          0.00000000	          0.00000000	          0.00000000	          0.00000000	          2.01230070	          0.00000000	          0.00000000	          0.00000000	          0.00000000	
          0.55600000	         37.99508490	        476.01339903	        -19.88507543	         -0.78267557	          0.00000000	          0.05782398	          0.00000000	          0.00000000	          0.00000000	          0.00000000	          0.00000000	          0.00000000	          0.00000000	          2.04679309	          0.00000000	          0.00000000	          0.00000000	          0.00000000	
          0.56000000	         39.69583827	        481.01203311	        -20.19410037	         -0.78093239	          0.00000000	          0.05793664	          0.00000000	          0.00000000	          0.00000000	          0.00000000	          0.00000000	          0.00000000	          0.00000000	          2.06025350	          0.00000000	          0.00000000	          0.00000000	          0.00000000	
          0.56400000	         41.43513538	        486.15707604	        -20.80476837	         -0.77913986	          0.00000000	          0.05808899	          0.00000000	          0.00000000	          0.00000000	          0.00000000	          0.00000000	          0.00000000	          0.00000000	          2.04972089	          0.00000000	          0.00000000	          0.00000000	          0.00000000	
          0.56800000	         43.24535186	        491.47225617	        -21.70334509	         -0.77727627	          0.00000000	          0.05827986	          0.00000000	          0.00000000	          0.00000000	          0.00000000	          0.00000000	          0.00000000	          0.00000000	          2.01675491	          0.00000000	          0.00000000	          0.00000000	          0.00000000	
          0.57200000	         45.12569781	        496.99658569	        -22.82945468	         -0.77531336	          0.00000000	          0.05850168	          0.00000000	          0.00000000	          0.00000000	          0.00000000	          0.00000000	          0.00000000	          0.00000000	          1.96756194	          0.00000000	          0.00000000	          0.00000000	          0.00000000	
          0.57600000	         47.03219940	        502.78137706	        -24.08636018	         -0.77323166	          0.00000000	          0.05873933	          0.00000000	          0.00000000	          0.00000000	          0.00000000	          0.00000000	          0.00000000	          0.00000000	          1.91188367	          0.00000000	          0.00000000	          0.00000000	          0.00000000	
          0.58000000	         48.88487007	        508.88929245	        -25.35799803	         -0.77102596	          0.00000000	          0.05897326	          0.00000000	          0.00000000	          0.00000000	          0.00000000	          0.00000000	          0.00000000	          0.00000000	          1.86103148	          0.00000000	          0.00000000	          0.00000000	          0.00000000	
          0.58400000	         50.58841338	        515.38960891	        -26.53400452	         -0.76870309	          0.00000000	          0.05918408	          0.00000000	          0.00000000	          0.00000000	          0.00000000	          0.00000000	          0.00000000	          0.00000000	          1.82561704	          0.00000000	          0.00000000	          0.00000000	          0.00000000	
          0.58800000	         52.05902680	        522.35064723	        -27.53871791	         -0.76628382	          0.00000000	          0.05936413	          0.00000000	          0.00000000	          0.00000000	          0.00000000	          0.00000000	          0.00000000	          0.00000000	          1.81346433	          0.00000000	          0.00000000	          0.00000000	          0.00000000	
          0.59200000	         53.24930964	        529.83152948	        -28.35194793	         -0.76380315	          0.00000000	          0.05951279	          0.00000000	          0.00000000	          0.00000000	          0.00000000	          0.00000000	          0.00000000	          0.00000000	          1.82803584	          0.00000000	          0.00000000	          0.00000000	          0.00000000	
          0.59600000	         54.16525797	        537.87445925	        -29.01135616	         -0.76130606	          0.00000000	          0.05963560	          0.00000000	          0.00000000	          0.00000000	          0.00000000	          0.00000000	          0.00000000	          0.00000000	          1.86762416	          0.00000000	          0.00000000	          0.00000000	          0.00000000	
          0.60000000	         54.87218833	        546.49130614	        -29.59654450	         -0.75883169	          0.00000000	          0.05973935	          0.00000000	          0.00000000	          0.00000000	          0.00000000	          0.00000000	          0.00000000	          0.00000000	          1.92555967	          0.00000000	          0.00000000	          0.00000000	          0.00000000	
          0.60400000	         55.48885452	        555.64254417	        -30.20292372	         -0.75641067	          0.00000000	          0.05983265	          0.00000000	          0.00000000	          0.00000000	          0.00000000	          0.00000000	          0.00000000	          0.00000000	          1.99160882	          0.00000000	          0.00000000	          0.00000000	          0.00000000	
          0.60800000	         56.17043610	        565.23337964	        -30.91557566	         -0.75407274	          0.00000000	          0.05992075	          0.00000000	          0.00000000	          0.00000000	          0.00000000	          0.00000000	          0.00000000	          0.00000000	          2.05443847	          0.00000000	          0.00000000	          0.00000000	          0.00000000	
          0.61200000	         57.08077129	        575.14675953	        -31.78912903	         -0.75184261	          0.00000000	          0.05999816	          0.00000000	          0.00000000	          0.00000000	          0.00000000	          0.00000000	          0.00000000	          0.00000000	          2.10455520	          0.00000000	          0.00000000	          0.00000000	          0.00000000	
          0.61600000	         58.35899864	        585.28835208	        -32.83412426	         -0.74974165	          0.00000000	          0.06005621	          0.00000000	          0.00000000	          0.00000000	          0.00000000	          0.00000000	          0.00000000	          0.00000000	          2.13679762	          0.00000000	          0.00000000	          0.00000000	          0.00000000	
          0.62000000	         60.09372079	        595.60634836	        -34.01111952	         -0.74778892	          0.00000000	          0.06008898	          0.00000000	          0.00000000	          0.00000000	          0.00000000	          0.00000000	          0.00000000	          0.00000000	          2.15155797	          0.00000000	          0.00000000	          0.00000000	          0.00000000	
